<?xml version="1.0" encoding="UTF-8" standalone="no"?>
<!DOCTYPE svg PUBLIC "-//W3C//DTD SVG 1.1//EN"
 "http://www.w3.org/Graphics/SVG/1.1/DTD/svg11.dtd">
<!-- Generated by graphviz version 2.40.1 (20161225.0304)
 -->
<!-- Title: %0 Pages: 1 -->
<svg width="929pt" height="260pt"
 viewBox="0.00 0.00 928.95 260.00" xmlns="http://www.w3.org/2000/svg" xmlns:xlink="http://www.w3.org/1999/xlink">
<g id="graph0" class="graph" transform="scale(1 1) rotate(0) translate(4 256)">
<title>%0</title>
<polygon fill="#ffffff" stroke="transparent" points="-4,4 -4,-256 924.9502,-256 924.9502,4 -4,4"/>
<!-- c:\Users\pasca\OneDrive\Dokumente\Elektronik\Projekte\t9k&#45;baseboard\examples\04_simple_cpu\src\rom.vhdl -->
<g id="node1" class="node">
<title>c:\Users\pasca\OneDrive\Dokumente\Elektronik\Projekte\t9k&#45;baseboard\examples\04_simple_cpu\src\rom.vhdl</title>
<polygon fill="#d3d3d3" stroke="#069302" points="109.5001,-180 40.1661,-180 40.1661,-176 36.1661,-176 36.1661,-172 40.1661,-172 40.1661,-152 36.1661,-152 36.1661,-148 40.1661,-148 40.1661,-144 109.5001,-144 109.5001,-180"/>
<polyline fill="none" stroke="#069302" points="40.1661,-176 44.1661,-176 44.1661,-172 40.1661,-172 "/>
<polyline fill="none" stroke="#069302" points="40.1661,-152 44.1661,-152 44.1661,-148 40.1661,-148 "/>
<text text-anchor="middle" x="74.8331" y="-157.8" font-family="Helvetica,sans-Serif" font-size="14.00" fill="#000000">rom.vhdl</text>
</g>
<!-- c:\Users\pasca\OneDrive\Dokumente\Elektronik\Projekte\t9k&#45;baseboard\examples\04_simple_cpu\src\peripherals\ram.vhdl -->
<g id="node2" class="node">
<title>c:\Users\pasca\OneDrive\Dokumente\Elektronik\Projekte\t9k&#45;baseboard\examples\04_simple_cpu\src\peripherals\ram.vhdl</title>
<polygon fill="#d3d3d3" stroke="#069302" points="69.5001,-108 .1661,-108 .1661,-104 -3.8339,-104 -3.8339,-100 .1661,-100 .1661,-80 -3.8339,-80 -3.8339,-76 .1661,-76 .1661,-72 69.5001,-72 69.5001,-108"/>
<polyline fill="none" stroke="#069302" points=".1661,-104 4.1661,-104 4.1661,-100 .1661,-100 "/>
<polyline fill="none" stroke="#069302" points=".1661,-80 4.1661,-80 4.1661,-76 .1661,-76 "/>
<text text-anchor="middle" x="34.8331" y="-85.8" font-family="Helvetica,sans-Serif" font-size="14.00" fill="#000000">ram.vhdl</text>
</g>
<!-- c:\Users\pasca\OneDrive\Dokumente\Elektronik\Projekte\t9k&#45;baseboard\examples\04_simple_cpu\src\peripherals\gpio.vhdl -->
<g id="node3" class="node">
<title>c:\Users\pasca\OneDrive\Dokumente\Elektronik\Projekte\t9k&#45;baseboard\examples\04_simple_cpu\src\peripherals\gpio.vhdl</title>
<polygon fill="#d3d3d3" stroke="#069302" points="159.8499,-108 87.8163,-108 87.8163,-104 83.8163,-104 83.8163,-100 87.8163,-100 87.8163,-80 83.8163,-80 83.8163,-76 87.8163,-76 87.8163,-72 159.8499,-72 159.8499,-108"/>
<polyline fill="none" stroke="#069302" points="87.8163,-104 91.8163,-104 91.8163,-100 87.8163,-100 "/>
<polyline fill="none" stroke="#069302" points="87.8163,-80 91.8163,-80 91.8163,-76 87.8163,-76 "/>
<text text-anchor="middle" x="123.8331" y="-85.8" font-family="Helvetica,sans-Serif" font-size="14.00" fill="#000000">gpio.vhdl</text>
</g>
<!-- c:\Users\pasca\OneDrive\Dokumente\Elektronik\Projekte\t9k&#45;baseboard\examples\04_simple_cpu\src\peripherals\debouncer.vhdl -->
<g id="node16" class="node">
<title>c:\Users\pasca\OneDrive\Dokumente\Elektronik\Projekte\t9k&#45;baseboard\examples\04_simple_cpu\src\peripherals\debouncer.vhdl</title>
<polygon fill="#d3d3d3" stroke="#069302" points="179.5347,-36 68.1315,-36 68.1315,-32 64.1315,-32 64.1315,-28 68.1315,-28 68.1315,-8 64.1315,-8 64.1315,-4 68.1315,-4 68.1315,0 179.5347,0 179.5347,-36"/>
<polyline fill="none" stroke="#069302" points="68.1315,-32 72.1315,-32 72.1315,-28 68.1315,-28 "/>
<polyline fill="none" stroke="#069302" points="68.1315,-8 72.1315,-8 72.1315,-4 68.1315,-4 "/>
<text text-anchor="middle" x="123.8331" y="-13.8" font-family="Helvetica,sans-Serif" font-size="14.00" fill="#000000">debouncer.vhdl</text>
</g>
<!-- c:\Users\pasca\OneDrive\Dokumente\Elektronik\Projekte\t9k&#45;baseboard\examples\04_simple_cpu\src\peripherals\gpio.vhdl&#45;&gt;c:\Users\pasca\OneDrive\Dokumente\Elektronik\Projekte\t9k&#45;baseboard\examples\04_simple_cpu\src\peripherals\debouncer.vhdl -->
<g id="edge1" class="edge">
<title>c:\Users\pasca\OneDrive\Dokumente\Elektronik\Projekte\t9k&#45;baseboard\examples\04_simple_cpu\src\peripherals\gpio.vhdl&#45;&gt;c:\Users\pasca\OneDrive\Dokumente\Elektronik\Projekte\t9k&#45;baseboard\examples\04_simple_cpu\src\peripherals\debouncer.vhdl</title>
<path fill="none" stroke="#000000" d="M123.8331,-71.8314C123.8331,-64.131 123.8331,-54.9743 123.8331,-46.4166"/>
<polygon fill="#000000" stroke="#000000" points="127.3332,-46.4132 123.8331,-36.4133 120.3332,-46.4133 127.3332,-46.4132"/>
</g>
<!-- c:\Users\pasca\OneDrive\Dokumente\Elektronik\Projekte\t9k&#45;baseboard\examples\04_simple_cpu\src\peripherals\delay.vhdl -->
<g id="node4" class="node">
<title>c:\Users\pasca\OneDrive\Dokumente\Elektronik\Projekte\t9k&#45;baseboard\examples\04_simple_cpu\src\peripherals\delay.vhdl</title>
<polygon fill="#d3d3d3" stroke="#069302" points="257.3499,-108 178.3163,-108 178.3163,-104 174.3163,-104 174.3163,-100 178.3163,-100 178.3163,-80 174.3163,-80 174.3163,-76 178.3163,-76 178.3163,-72 257.3499,-72 257.3499,-108"/>
<polyline fill="none" stroke="#069302" points="178.3163,-104 182.3163,-104 182.3163,-100 178.3163,-100 "/>
<polyline fill="none" stroke="#069302" points="178.3163,-80 182.3163,-80 182.3163,-76 178.3163,-76 "/>
<text text-anchor="middle" x="217.8331" y="-85.8" font-family="Helvetica,sans-Serif" font-size="14.00" fill="#000000">delay.vhdl</text>
</g>
<!-- c:\Users\pasca\OneDrive\Dokumente\Elektronik\Projekte\t9k&#45;baseboard\examples\04_simple_cpu\src\peripherals\soc_io.vhdl -->
<g id="node5" class="node">
<title>c:\Users\pasca\OneDrive\Dokumente\Elektronik\Projekte\t9k&#45;baseboard\examples\04_simple_cpu\src\peripherals\soc_io.vhdl</title>
<polygon fill="#d3d3d3" stroke="#069302" points="213.8499,-180 127.8163,-180 127.8163,-176 123.8163,-176 123.8163,-172 127.8163,-172 127.8163,-152 123.8163,-152 123.8163,-148 127.8163,-148 127.8163,-144 213.8499,-144 213.8499,-180"/>
<polyline fill="none" stroke="#069302" points="127.8163,-176 131.8163,-176 131.8163,-172 127.8163,-172 "/>
<polyline fill="none" stroke="#069302" points="127.8163,-152 131.8163,-152 131.8163,-148 127.8163,-148 "/>
<text text-anchor="middle" x="170.8331" y="-157.8" font-family="Helvetica,sans-Serif" font-size="14.00" fill="#000000">soc_io.vhdl</text>
</g>
<!-- c:\Users\pasca\OneDrive\Dokumente\Elektronik\Projekte\t9k&#45;baseboard\examples\04_simple_cpu\src\peripherals\soc_io.vhdl&#45;&gt;c:\Users\pasca\OneDrive\Dokumente\Elektronik\Projekte\t9k&#45;baseboard\examples\04_simple_cpu\src\peripherals\ram.vhdl -->
<g id="edge4" class="edge">
<title>c:\Users\pasca\OneDrive\Dokumente\Elektronik\Projekte\t9k&#45;baseboard\examples\04_simple_cpu\src\peripherals\soc_io.vhdl&#45;&gt;c:\Users\pasca\OneDrive\Dokumente\Elektronik\Projekte\t9k&#45;baseboard\examples\04_simple_cpu\src\peripherals\ram.vhdl</title>
<path fill="none" stroke="#000000" d="M136.5146,-143.8314C118.7972,-134.4516 96.9986,-122.9112 78.1347,-112.9244"/>
<polygon fill="#000000" stroke="#000000" points="79.6162,-109.7485 69.1407,-108.1628 76.3409,-115.935 79.6162,-109.7485"/>
</g>
<!-- c:\Users\pasca\OneDrive\Dokumente\Elektronik\Projekte\t9k&#45;baseboard\examples\04_simple_cpu\src\peripherals\soc_io.vhdl&#45;&gt;c:\Users\pasca\OneDrive\Dokumente\Elektronik\Projekte\t9k&#45;baseboard\examples\04_simple_cpu\src\peripherals\gpio.vhdl -->
<g id="edge3" class="edge">
<title>c:\Users\pasca\OneDrive\Dokumente\Elektronik\Projekte\t9k&#45;baseboard\examples\04_simple_cpu\src\peripherals\soc_io.vhdl&#45;&gt;c:\Users\pasca\OneDrive\Dokumente\Elektronik\Projekte\t9k&#45;baseboard\examples\04_simple_cpu\src\peripherals\gpio.vhdl</title>
<path fill="none" stroke="#000000" d="M158.973,-143.8314C153.6702,-135.7079 147.3094,-125.9637 141.4658,-117.0118"/>
<polygon fill="#000000" stroke="#000000" points="144.25,-114.8739 135.8529,-108.4133 138.3883,-118.7003 144.25,-114.8739"/>
</g>
<!-- c:\Users\pasca\OneDrive\Dokumente\Elektronik\Projekte\t9k&#45;baseboard\examples\04_simple_cpu\src\peripherals\soc_io.vhdl&#45;&gt;c:\Users\pasca\OneDrive\Dokumente\Elektronik\Projekte\t9k&#45;baseboard\examples\04_simple_cpu\src\peripherals\delay.vhdl -->
<g id="edge2" class="edge">
<title>c:\Users\pasca\OneDrive\Dokumente\Elektronik\Projekte\t9k&#45;baseboard\examples\04_simple_cpu\src\peripherals\soc_io.vhdl&#45;&gt;c:\Users\pasca\OneDrive\Dokumente\Elektronik\Projekte\t9k&#45;baseboard\examples\04_simple_cpu\src\peripherals\delay.vhdl</title>
<path fill="none" stroke="#000000" d="M182.6932,-143.8314C187.996,-135.7079 194.3568,-125.9637 200.2004,-117.0118"/>
<polygon fill="#000000" stroke="#000000" points="203.2779,-118.7003 205.8133,-108.4133 197.4162,-114.8739 203.2779,-118.7003"/>
</g>
<!-- c:\Users\pasca\OneDrive\Dokumente\Elektronik\Projekte\t9k&#45;baseboard\examples\04_simple_cpu\src\overture\write_back.vhdl -->
<g id="node6" class="node">
<title>c:\Users\pasca\OneDrive\Dokumente\Elektronik\Projekte\t9k&#45;baseboard\examples\04_simple_cpu\src\overture\write_back.vhdl</title>
<polygon fill="#d3d3d3" stroke="#069302" points="388.2912,-108 275.375,-108 275.375,-104 271.375,-104 271.375,-100 275.375,-100 275.375,-80 271.375,-80 271.375,-76 275.375,-76 275.375,-72 388.2912,-72 388.2912,-108"/>
<polyline fill="none" stroke="#069302" points="275.375,-104 279.375,-104 279.375,-100 275.375,-100 "/>
<polyline fill="none" stroke="#069302" points="275.375,-80 279.375,-80 279.375,-76 275.375,-76 "/>
<text text-anchor="middle" x="331.8331" y="-85.8" font-family="Helvetica,sans-Serif" font-size="14.00" fill="#000000">write_back.vhdl</text>
</g>
<!-- c:\Users\pasca\OneDrive\Dokumente\Elektronik\Projekte\t9k&#45;baseboard\examples\04_simple_cpu\src\overture\registers.vhdl -->
<g id="node7" class="node">
<title>c:\Users\pasca\OneDrive\Dokumente\Elektronik\Projekte\t9k&#45;baseboard\examples\04_simple_cpu\src\overture\registers.vhdl</title>
<polygon fill="#d3d3d3" stroke="#069302" points="505.562,-108 406.1042,-108 406.1042,-104 402.1042,-104 402.1042,-100 406.1042,-100 406.1042,-80 402.1042,-80 402.1042,-76 406.1042,-76 406.1042,-72 505.562,-72 505.562,-108"/>
<polyline fill="none" stroke="#069302" points="406.1042,-104 410.1042,-104 410.1042,-100 406.1042,-100 "/>
<polyline fill="none" stroke="#069302" points="406.1042,-80 410.1042,-80 410.1042,-76 406.1042,-76 "/>
<text text-anchor="middle" x="455.8331" y="-85.8" font-family="Helvetica,sans-Serif" font-size="14.00" fill="#000000">registers.vhdl</text>
</g>
<!-- c:\Users\pasca\OneDrive\Dokumente\Elektronik\Projekte\t9k&#45;baseboard\examples\04_simple_cpu\src\overture\fetch.vhdl -->
<g id="node8" class="node">
<title>c:\Users\pasca\OneDrive\Dokumente\Elektronik\Projekte\t9k&#45;baseboard\examples\04_simple_cpu\src\overture\fetch.vhdl</title>
<polygon fill="#d3d3d3" stroke="#069302" points="599.742,-108 523.9242,-108 523.9242,-104 519.9242,-104 519.9242,-100 523.9242,-100 523.9242,-80 519.9242,-80 519.9242,-76 523.9242,-76 523.9242,-72 599.742,-72 599.742,-108"/>
<polyline fill="none" stroke="#069302" points="523.9242,-104 527.9242,-104 527.9242,-100 523.9242,-100 "/>
<polyline fill="none" stroke="#069302" points="523.9242,-80 527.9242,-80 527.9242,-76 523.9242,-76 "/>
<text text-anchor="middle" x="561.8331" y="-85.8" font-family="Helvetica,sans-Serif" font-size="14.00" fill="#000000">fetch.vhdl</text>
</g>
<!-- c:\Users\pasca\OneDrive\Dokumente\Elektronik\Projekte\t9k&#45;baseboard\examples\04_simple_cpu\src\overture\decode.vhdl -->
<g id="node9" class="node">
<title>c:\Users\pasca\OneDrive\Dokumente\Elektronik\Projekte\t9k&#45;baseboard\examples\04_simple_cpu\src\overture\decode.vhdl</title>
<polygon fill="#d3d3d3" stroke="#069302" points="709.8097,-108 617.8565,-108 617.8565,-104 613.8565,-104 613.8565,-100 617.8565,-100 617.8565,-80 613.8565,-80 613.8565,-76 617.8565,-76 617.8565,-72 709.8097,-72 709.8097,-108"/>
<polyline fill="none" stroke="#069302" points="617.8565,-104 621.8565,-104 621.8565,-100 617.8565,-100 "/>
<polyline fill="none" stroke="#069302" points="617.8565,-80 621.8565,-80 621.8565,-76 617.8565,-76 "/>
<text text-anchor="middle" x="663.8331" y="-85.8" font-family="Helvetica,sans-Serif" font-size="14.00" fill="#000000">decode.vhdl</text>
</g>
<!-- c:\Users\pasca\OneDrive\Dokumente\Elektronik\Projekte\t9k&#45;baseboard\examples\04_simple_cpu\src\overture\condition.vhdl -->
<g id="node10" class="node">
<title>c:\Users\pasca\OneDrive\Dokumente\Elektronik\Projekte\t9k&#45;baseboard\examples\04_simple_cpu\src\overture\condition.vhdl</title>
<polygon fill="#d3d3d3" stroke="#069302" points="693.4132,-36 592.253,-36 592.253,-32 588.253,-32 588.253,-28 592.253,-28 592.253,-8 588.253,-8 588.253,-4 592.253,-4 592.253,0 693.4132,0 693.4132,-36"/>
<polyline fill="none" stroke="#069302" points="592.253,-32 596.253,-32 596.253,-28 592.253,-28 "/>
<polyline fill="none" stroke="#069302" points="592.253,-8 596.253,-8 596.253,-4 592.253,-4 "/>
<text text-anchor="middle" x="642.8331" y="-13.8" font-family="Helvetica,sans-Serif" font-size="14.00" fill="#000000">condition.vhdl</text>
</g>
<!-- c:\Users\pasca\OneDrive\Dokumente\Elektronik\Projekte\t9k&#45;baseboard\examples\04_simple_cpu\src\overture\barrel_shifter.vhdl -->
<g id="node11" class="node">
<title>c:\Users\pasca\OneDrive\Dokumente\Elektronik\Projekte\t9k&#45;baseboard\examples\04_simple_cpu\src\overture\barrel_shifter.vhdl</title>
<polygon fill="#d3d3d3" stroke="#069302" points="838.5675,-36 711.0987,-36 711.0987,-32 707.0987,-32 707.0987,-28 711.0987,-28 711.0987,-8 707.0987,-8 707.0987,-4 711.0987,-4 711.0987,0 838.5675,0 838.5675,-36"/>
<polyline fill="none" stroke="#069302" points="711.0987,-32 715.0987,-32 715.0987,-28 711.0987,-28 "/>
<polyline fill="none" stroke="#069302" points="711.0987,-8 715.0987,-8 715.0987,-4 711.0987,-4 "/>
<text text-anchor="middle" x="774.8331" y="-13.8" font-family="Helvetica,sans-Serif" font-size="14.00" fill="#000000">barrel_shifter.vhdl</text>
</g>
<!-- c:\Users\pasca\OneDrive\Dokumente\Elektronik\Projekte\t9k&#45;baseboard\examples\04_simple_cpu\src\overture\alu.vhdl -->
<g id="node12" class="node">
<title>c:\Users\pasca\OneDrive\Dokumente\Elektronik\Projekte\t9k&#45;baseboard\examples\04_simple_cpu\src\overture\alu.vhdl</title>
<polygon fill="#d3d3d3" stroke="#069302" points="921.0677,-36 856.5985,-36 856.5985,-32 852.5985,-32 852.5985,-28 856.5985,-28 856.5985,-8 852.5985,-8 852.5985,-4 856.5985,-4 856.5985,0 921.0677,0 921.0677,-36"/>
<polyline fill="none" stroke="#069302" points="856.5985,-32 860.5985,-32 860.5985,-28 856.5985,-28 "/>
<polyline fill="none" stroke="#069302" points="856.5985,-8 860.5985,-8 860.5985,-4 856.5985,-4 "/>
<text text-anchor="middle" x="888.8331" y="-13.8" font-family="Helvetica,sans-Serif" font-size="14.00" fill="#000000">alu.vhdl</text>
</g>
<!-- c:\Users\pasca\OneDrive\Dokumente\Elektronik\Projekte\t9k&#45;baseboard\examples\04_simple_cpu\src\overture\execute.vhdl -->
<g id="node13" class="node">
<title>c:\Users\pasca\OneDrive\Dokumente\Elektronik\Projekte\t9k&#45;baseboard\examples\04_simple_cpu\src\overture\execute.vhdl</title>
<polygon fill="#d3d3d3" stroke="#069302" points="821.9174,-108 727.7488,-108 727.7488,-104 723.7488,-104 723.7488,-100 727.7488,-100 727.7488,-80 723.7488,-80 723.7488,-76 727.7488,-76 727.7488,-72 821.9174,-72 821.9174,-108"/>
<polyline fill="none" stroke="#069302" points="727.7488,-104 731.7488,-104 731.7488,-100 727.7488,-100 "/>
<polyline fill="none" stroke="#069302" points="727.7488,-80 731.7488,-80 731.7488,-76 727.7488,-76 "/>
<text text-anchor="middle" x="774.8331" y="-85.8" font-family="Helvetica,sans-Serif" font-size="14.00" fill="#000000">execute.vhdl</text>
</g>
<!-- c:\Users\pasca\OneDrive\Dokumente\Elektronik\Projekte\t9k&#45;baseboard\examples\04_simple_cpu\src\overture\execute.vhdl&#45;&gt;c:\Users\pasca\OneDrive\Dokumente\Elektronik\Projekte\t9k&#45;baseboard\examples\04_simple_cpu\src\overture\condition.vhdl -->
<g id="edge5" class="edge">
<title>c:\Users\pasca\OneDrive\Dokumente\Elektronik\Projekte\t9k&#45;baseboard\examples\04_simple_cpu\src\overture\execute.vhdl&#45;&gt;c:\Users\pasca\OneDrive\Dokumente\Elektronik\Projekte\t9k&#45;baseboard\examples\04_simple_cpu\src\overture\condition.vhdl</title>
<path fill="none" stroke="#000000" d="M741.5239,-71.8314C724.4058,-62.4942 703.3625,-51.016 685.1109,-41.0606"/>
<polygon fill="#000000" stroke="#000000" points="686.5866,-37.8788 676.1316,-36.1628 683.2346,-44.024 686.5866,-37.8788"/>
</g>
<!-- c:\Users\pasca\OneDrive\Dokumente\Elektronik\Projekte\t9k&#45;baseboard\examples\04_simple_cpu\src\overture\execute.vhdl&#45;&gt;c:\Users\pasca\OneDrive\Dokumente\Elektronik\Projekte\t9k&#45;baseboard\examples\04_simple_cpu\src\overture\barrel_shifter.vhdl -->
<g id="edge7" class="edge">
<title>c:\Users\pasca\OneDrive\Dokumente\Elektronik\Projekte\t9k&#45;baseboard\examples\04_simple_cpu\src\overture\execute.vhdl&#45;&gt;c:\Users\pasca\OneDrive\Dokumente\Elektronik\Projekte\t9k&#45;baseboard\examples\04_simple_cpu\src\overture\barrel_shifter.vhdl</title>
<path fill="none" stroke="#000000" d="M774.8331,-71.8314C774.8331,-64.131 774.8331,-54.9743 774.8331,-46.4166"/>
<polygon fill="#000000" stroke="#000000" points="778.3332,-46.4132 774.8331,-36.4133 771.3332,-46.4133 778.3332,-46.4132"/>
</g>
<!-- c:\Users\pasca\OneDrive\Dokumente\Elektronik\Projekte\t9k&#45;baseboard\examples\04_simple_cpu\src\overture\execute.vhdl&#45;&gt;c:\Users\pasca\OneDrive\Dokumente\Elektronik\Projekte\t9k&#45;baseboard\examples\04_simple_cpu\src\overture\alu.vhdl -->
<g id="edge6" class="edge">
<title>c:\Users\pasca\OneDrive\Dokumente\Elektronik\Projekte\t9k&#45;baseboard\examples\04_simple_cpu\src\overture\execute.vhdl&#45;&gt;c:\Users\pasca\OneDrive\Dokumente\Elektronik\Projekte\t9k&#45;baseboard\examples\04_simple_cpu\src\overture\alu.vhdl</title>
<path fill="none" stroke="#000000" d="M803.6001,-71.8314C818.0464,-62.7074 835.7296,-51.539 851.2371,-41.7449"/>
<polygon fill="#000000" stroke="#000000" points="853.4894,-44.462 860.0753,-36.1628 849.7514,-38.5436 853.4894,-44.462"/>
</g>
<!-- c:\Users\pasca\OneDrive\Dokumente\Elektronik\Projekte\t9k&#45;baseboard\examples\04_simple_cpu\src\overture\overture.vhdl -->
<g id="node14" class="node">
<title>c:\Users\pasca\OneDrive\Dokumente\Elektronik\Projekte\t9k&#45;baseboard\examples\04_simple_cpu\src\overture\overture.vhdl</title>
<polygon fill="#d3d3d3" stroke="#069302" points="557.2377,-180 460.4285,-180 460.4285,-176 456.4285,-176 456.4285,-172 460.4285,-172 460.4285,-152 456.4285,-152 456.4285,-148 460.4285,-148 460.4285,-144 557.2377,-144 557.2377,-180"/>
<polyline fill="none" stroke="#069302" points="460.4285,-176 464.4285,-176 464.4285,-172 460.4285,-172 "/>
<polyline fill="none" stroke="#069302" points="460.4285,-152 464.4285,-152 464.4285,-148 460.4285,-148 "/>
<text text-anchor="middle" x="508.8331" y="-157.8" font-family="Helvetica,sans-Serif" font-size="14.00" fill="#000000">overture.vhdl</text>
</g>
<!-- c:\Users\pasca\OneDrive\Dokumente\Elektronik\Projekte\t9k&#45;baseboard\examples\04_simple_cpu\src\overture\overture.vhdl&#45;&gt;c:\Users\pasca\OneDrive\Dokumente\Elektronik\Projekte\t9k&#45;baseboard\examples\04_simple_cpu\src\overture\write_back.vhdl -->
<g id="edge12" class="edge">
<title>c:\Users\pasca\OneDrive\Dokumente\Elektronik\Projekte\t9k&#45;baseboard\examples\04_simple_cpu\src\overture\overture.vhdl&#45;&gt;c:\Users\pasca\OneDrive\Dokumente\Elektronik\Projekte\t9k&#45;baseboard\examples\04_simple_cpu\src\overture\write_back.vhdl</title>
<path fill="none" stroke="#000000" d="M464.1685,-143.8314C440.2854,-134.1162 410.7041,-122.0831 385.5703,-111.8592"/>
<polygon fill="#000000" stroke="#000000" points="386.7583,-108.564 376.1765,-108.038 384.1206,-115.0481 386.7583,-108.564"/>
</g>
<!-- c:\Users\pasca\OneDrive\Dokumente\Elektronik\Projekte\t9k&#45;baseboard\examples\04_simple_cpu\src\overture\overture.vhdl&#45;&gt;c:\Users\pasca\OneDrive\Dokumente\Elektronik\Projekte\t9k&#45;baseboard\examples\04_simple_cpu\src\overture\registers.vhdl -->
<g id="edge8" class="edge">
<title>c:\Users\pasca\OneDrive\Dokumente\Elektronik\Projekte\t9k&#45;baseboard\examples\04_simple_cpu\src\overture\overture.vhdl&#45;&gt;c:\Users\pasca\OneDrive\Dokumente\Elektronik\Projekte\t9k&#45;baseboard\examples\04_simple_cpu\src\overture\registers.vhdl</title>
<path fill="none" stroke="#000000" d="M495.459,-143.8314C489.4169,-135.6232 482.1568,-125.7606 475.511,-116.7323"/>
<polygon fill="#000000" stroke="#000000" points="478.1342,-114.3918 469.3873,-108.4133 472.4968,-118.5415 478.1342,-114.3918"/>
</g>
<!-- c:\Users\pasca\OneDrive\Dokumente\Elektronik\Projekte\t9k&#45;baseboard\examples\04_simple_cpu\src\overture\overture.vhdl&#45;&gt;c:\Users\pasca\OneDrive\Dokumente\Elektronik\Projekte\t9k&#45;baseboard\examples\04_simple_cpu\src\overture\fetch.vhdl -->
<g id="edge9" class="edge">
<title>c:\Users\pasca\OneDrive\Dokumente\Elektronik\Projekte\t9k&#45;baseboard\examples\04_simple_cpu\src\overture\overture.vhdl&#45;&gt;c:\Users\pasca\OneDrive\Dokumente\Elektronik\Projekte\t9k&#45;baseboard\examples\04_simple_cpu\src\overture\fetch.vhdl</title>
<path fill="none" stroke="#000000" d="M522.2072,-143.8314C528.2493,-135.6232 535.5094,-125.7606 542.1552,-116.7323"/>
<polygon fill="#000000" stroke="#000000" points="545.1694,-118.5415 548.2789,-108.4133 539.532,-114.3918 545.1694,-118.5415"/>
</g>
<!-- c:\Users\pasca\OneDrive\Dokumente\Elektronik\Projekte\t9k&#45;baseboard\examples\04_simple_cpu\src\overture\overture.vhdl&#45;&gt;c:\Users\pasca\OneDrive\Dokumente\Elektronik\Projekte\t9k&#45;baseboard\examples\04_simple_cpu\src\overture\decode.vhdl -->
<g id="edge11" class="edge">
<title>c:\Users\pasca\OneDrive\Dokumente\Elektronik\Projekte\t9k&#45;baseboard\examples\04_simple_cpu\src\overture\overture.vhdl&#45;&gt;c:\Users\pasca\OneDrive\Dokumente\Elektronik\Projekte\t9k&#45;baseboard\examples\04_simple_cpu\src\overture\decode.vhdl</title>
<path fill="none" stroke="#000000" d="M547.9461,-143.8314C568.5843,-134.2446 594.0815,-122.4008 615.9004,-112.2655"/>
<polygon fill="#000000" stroke="#000000" points="617.4065,-115.4251 625.0013,-108.038 614.4575,-109.0766 617.4065,-115.4251"/>
</g>
<!-- c:\Users\pasca\OneDrive\Dokumente\Elektronik\Projekte\t9k&#45;baseboard\examples\04_simple_cpu\src\overture\overture.vhdl&#45;&gt;c:\Users\pasca\OneDrive\Dokumente\Elektronik\Projekte\t9k&#45;baseboard\examples\04_simple_cpu\src\overture\execute.vhdl -->
<g id="edge10" class="edge">
<title>c:\Users\pasca\OneDrive\Dokumente\Elektronik\Projekte\t9k&#45;baseboard\examples\04_simple_cpu\src\overture\overture.vhdl&#45;&gt;c:\Users\pasca\OneDrive\Dokumente\Elektronik\Projekte\t9k&#45;baseboard\examples\04_simple_cpu\src\overture\execute.vhdl</title>
<path fill="none" stroke="#000000" d="M557.4314,-150.3706C597.9683,-140.4746 657.4453,-125.5032 717.8392,-108.2141"/>
<polygon fill="#000000" stroke="#000000" points="718.8971,-111.5517 727.5372,-105.4198 716.959,-104.8254 718.8971,-111.5517"/>
</g>
<!-- c:\Users\pasca\OneDrive\Dokumente\Elektronik\Projekte\t9k&#45;baseboard\examples\04_simple_cpu\src\soc_top.vhdl -->
<g id="node15" class="node">
<title>c:\Users\pasca\OneDrive\Dokumente\Elektronik\Projekte\t9k&#45;baseboard\examples\04_simple_cpu\src\soc_top.vhdl</title>
<polygon fill="#d3d3d3" stroke="#069302" points="217.9174,-252 123.7488,-252 123.7488,-248 119.7488,-248 119.7488,-244 123.7488,-244 123.7488,-224 119.7488,-224 119.7488,-220 123.7488,-220 123.7488,-216 217.9174,-216 217.9174,-252"/>
<polyline fill="none" stroke="#069302" points="123.7488,-248 127.7488,-248 127.7488,-244 123.7488,-244 "/>
<polyline fill="none" stroke="#069302" points="123.7488,-224 127.7488,-224 127.7488,-220 123.7488,-220 "/>
<text text-anchor="middle" x="170.8331" y="-229.8" font-family="Helvetica,sans-Serif" font-size="14.00" fill="#000000">soc_top.vhdl</text>
</g>
<!-- c:\Users\pasca\OneDrive\Dokumente\Elektronik\Projekte\t9k&#45;baseboard\examples\04_simple_cpu\src\soc_top.vhdl&#45;&gt;c:\Users\pasca\OneDrive\Dokumente\Elektronik\Projekte\t9k&#45;baseboard\examples\04_simple_cpu\src\rom.vhdl -->
<g id="edge13" class="edge">
<title>c:\Users\pasca\OneDrive\Dokumente\Elektronik\Projekte\t9k&#45;baseboard\examples\04_simple_cpu\src\soc_top.vhdl&#45;&gt;c:\Users\pasca\OneDrive\Dokumente\Elektronik\Projekte\t9k&#45;baseboard\examples\04_simple_cpu\src\rom.vhdl</title>
<path fill="none" stroke="#000000" d="M146.6082,-215.8314C134.6703,-206.8779 120.1075,-195.9558 107.2271,-186.2955"/>
<polygon fill="#000000" stroke="#000000" points="109.1502,-183.3629 99.0502,-180.1628 104.9502,-188.9629 109.1502,-183.3629"/>
</g>
<!-- c:\Users\pasca\OneDrive\Dokumente\Elektronik\Projekte\t9k&#45;baseboard\examples\04_simple_cpu\src\soc_top.vhdl&#45;&gt;c:\Users\pasca\OneDrive\Dokumente\Elektronik\Projekte\t9k&#45;baseboard\examples\04_simple_cpu\src\peripherals\soc_io.vhdl -->
<g id="edge15" class="edge">
<title>c:\Users\pasca\OneDrive\Dokumente\Elektronik\Projekte\t9k&#45;baseboard\examples\04_simple_cpu\src\soc_top.vhdl&#45;&gt;c:\Users\pasca\OneDrive\Dokumente\Elektronik\Projekte\t9k&#45;baseboard\examples\04_simple_cpu\src\peripherals\soc_io.vhdl</title>
<path fill="none" stroke="#000000" d="M170.8331,-215.8314C170.8331,-208.131 170.8331,-198.9743 170.8331,-190.4166"/>
<polygon fill="#000000" stroke="#000000" points="174.3332,-190.4132 170.8331,-180.4133 167.3332,-190.4133 174.3332,-190.4132"/>
</g>
<!-- c:\Users\pasca\OneDrive\Dokumente\Elektronik\Projekte\t9k&#45;baseboard\examples\04_simple_cpu\src\soc_top.vhdl&#45;&gt;c:\Users\pasca\OneDrive\Dokumente\Elektronik\Projekte\t9k&#45;baseboard\examples\04_simple_cpu\src\overture\overture.vhdl -->
<g id="edge14" class="edge">
<title>c:\Users\pasca\OneDrive\Dokumente\Elektronik\Projekte\t9k&#45;baseboard\examples\04_simple_cpu\src\soc_top.vhdl&#45;&gt;c:\Users\pasca\OneDrive\Dokumente\Elektronik\Projekte\t9k&#45;baseboard\examples\04_simple_cpu\src\overture\overture.vhdl</title>
<path fill="none" stroke="#000000" d="M218.1864,-223.9129C279.0166,-210.955 384.5772,-188.4687 450.3545,-174.457"/>
<polygon fill="#000000" stroke="#000000" points="451.1072,-177.8752 460.1586,-172.3685 449.6488,-171.0289 451.1072,-177.8752"/>
</g>
</g>
</svg>
